<?xml version="1.0" encoding="utf-8"?>
<!-- Generator: Adobe Illustrator 15.1.0, SVG Export Plug-In . SVG Version: 6.00 Build 0)  -->
<svg version="1.2" baseProfile="tiny" xmlns="http://www.w3.org/2000/svg" xmlns:xlink="http://www.w3.org/1999/xlink" x="0px"
	 y="0px" width="547.848px" height="227.104px" viewBox="0 0 547.848 227.104" overflow="inherit" xml:space="preserve">
<g id="Layer_1">
	<g id="Layer_1_1_">
		<path stroke="#000000" stroke-width="0.4807" stroke-linejoin="round" stroke-miterlimit="10" d="M2.101,17.127
			c1.352,0,2.704,0,4.056,0c1.329,0,2.526-0.406,3.75-0.854c2.454-0.897,3.82-3.339,5.154-5.409
			c-1.007,1.068-1.898,2.067-3.112,2.889c-1.161,0.785-2.61,0.906-3.953,1.087c-1.403,0.188-2.859,0.074-4.271,0.074
			c-0.12,0-1.623-0.025-1.623,0.021C2.101,15.666,2.101,16.396,2.101,17.127"/>
		<path stroke="#000000" stroke-width="0.4807" stroke-linejoin="round" stroke-miterlimit="10" d="M2.101,220.581
			c1.352,0,2.704,0,4.056,0c1.329,0,2.526,0.404,3.75,0.854c2.445,0.896,3.825,3.365,5.154,5.43
			c-1.007-1.069-1.906-2.071-3.112-2.904c-1.154-0.796-2.612-0.905-3.953-1.076c-1.405-0.18-2.857-0.07-4.271-0.07
			c-0.12,0-1.623,0.025-1.623-0.021C2.101,222.054,2.101,221.317,2.101,220.581"/>
		
			<line fill="none" stroke="#000000" stroke-width="0.4807" stroke-linejoin="round" stroke-miterlimit="10" x1="3.181" y1="222.812" x2="1.165" y2="14.913"/>
		<path stroke="#000000" stroke-width="0.4807" stroke-linejoin="round" stroke-miterlimit="10" d="M1.165,14.913
			c0,3.125,0,6.25,0,9.375c0,8.207,0,16.414,0,24.621c0,11.537,0,23.072,0,34.609c0,13.114,0,26.228,0,39.341
			c0,12.938,0,25.877,0,38.815c0,11.011,0,22.021,0,33.032c0,7.331,0,14.661,0,21.992c0,1.736,0,3.476,0,5.213
			c0,0.292,0,0.583,0,0.874c0-0.167,2.016,0.411,2.016-0.121c0-3.827,0-7.654,0-11.482c0-8.698,0-17.396,0-26.097
			c0-11.818,0-23.637,0-35.455c0-13.187,0-26.37,0-39.556c0-12.8,0-25.6,0-38.399c0-10.662,0-21.323,0-31.985
			c0-6.771,0-13.543,0-20.313c0-1.188,0-2.377,0-3.566c0-0.259,0-0.517,0-0.775C3.181,14.682,1.489,14.913,1.165,14.913"/>
		<path stroke="#000000" stroke-width="0.4807" stroke-linejoin="round" stroke-miterlimit="10" d="M12.9,197.937
			c0.405,1.08,1.144,1.801,2.358,1.801c0.989,0,2.271-0.507,2.475-1.616c0.207-1.122,0.009-2.117-1.087-2.687
			c-1.077-0.559-2.231-0.354-2.846,0.702c-0.942-0.641,0.354-2.472,0.774-3.149C13.191,194.407,12.623,195.957,12.9,197.937"/>
		<path fill="none" stroke="#000000" stroke-width="0.4807" stroke-linejoin="round" stroke-miterlimit="10" d="M14.575,192.987
			c0.911-0.643,1.718-1.049,2.826-1.225"/>
		<path stroke="#000000" stroke-width="0.4807" stroke-linejoin="round" stroke-miterlimit="10" d="M15.816,209.979
			c3.476-2.038,7.399-4.724,8.527-8.86c1.14-4.186-0.637-8.833-5.328-9.338c-0.532-0.058-1.081-0.018-1.616-0.018
			c0.958,0.153,1.992,0.242,2.681,1.021c0.758,0.855,1.144,1.656,1.379,2.778c0.413,1.971,0.274,4.188-0.146,6.144
			c-0.489,2.279-1.401,4.038-2.917,5.802c-1.318,1.534-3.221,2.602-4.987,3.53c-0.336,0.177-1.317,0.488-1.41,0.849
			C13.299,211.293,14.553,210.645,15.816,209.979"/>
		<path stroke="#000000" stroke-width="0.4807" stroke-linejoin="round" stroke-miterlimit="10" d="M26.509,194.679
			c0.494,1.255,2.201,0.422,1.629-0.558C27.603,193.204,26.339,193.548,26.509,194.679"/>
		<path stroke="#000000" stroke-width="0.4807" stroke-linejoin="round" stroke-miterlimit="10" d="M26.509,200.871
			c0.482,1.037,1.692,0.757,1.692-0.38C28.201,199.321,26.327,199.619,26.509,200.871"/>
		<path fill="none" stroke="#000000" stroke-width="0.4807" stroke-linejoin="round" stroke-miterlimit="10" d="M34.213,199.198
			v15.39 M34.213,208.99l0.684-1.026"/>
		<path stroke="#000000" stroke-width="0.4807" stroke-linejoin="round" stroke-miterlimit="10" d="M34.896,207.963
			c0.8-0.8,1.509-1.123,2.635-0.728c0.894,0.314,1.016,1.82,0.811,2.595c-0.591,2.229-2.414,3.384-4.129,4.757
			c1.24-1.228,2.452-2.299,2.859-4.056c0.146-0.636,0.253-1.719-0.034-2.334C36.617,207.293,35.583,207.682,34.896,207.963"/>
		
			<line fill="none" stroke="#000000" stroke-width="0.25" stroke-linejoin="round" stroke-miterlimit="10" x1="206.185" y1="216.513" x2="206.185" y2="191.312"/>
		
			<line fill="none" stroke="#000000" stroke-width="0.25" stroke-linejoin="round" stroke-miterlimit="10" x1="206.311" y1="216.513" x2="206.311" y2="191.312"/>
		
			<line fill="none" stroke="#000000" stroke-width="0.25" stroke-linejoin="round" stroke-miterlimit="10" x1="336.559" y1="216.513" x2="336.559" y2="191.312"/>
		
			<line fill="none" stroke="#000000" stroke-width="0.25" stroke-linejoin="round" stroke-miterlimit="10" x1="336.667" y1="216.513" x2="336.667" y2="191.312"/>
		
			<line fill="none" stroke="#000000" stroke-width="0.25" stroke-linejoin="round" stroke-miterlimit="10" x1="440.004" y1="216.513" x2="440.004" y2="191.312"/>
		
			<line fill="none" stroke="#000000" stroke-width="0.25" stroke-linejoin="round" stroke-miterlimit="10" x1="440.131" y1="216.513" x2="440.131" y2="191.312"/>
		
			<line fill="none" stroke="#000000" stroke-width="0.25" stroke-linejoin="round" stroke-miterlimit="10" x1="547.5" y1="216.513" x2="547.5" y2="191.312"/>
		
			<line fill="none" stroke="#000000" stroke-width="0.25" stroke-linejoin="round" stroke-miterlimit="10" x1="547.608" y1="216.513" x2="547.608" y2="191.312"/>
		<text transform="matrix(1 0 0 1 18.293 176.3186)" font-family="'Times-BoldItalic'" font-size="9.7202">8</text>
		<path stroke="#000000" stroke-width="0.4807" stroke-linejoin="round" stroke-miterlimit="10" d="M20.208,140.463
			c0.816,4.657,1.632,9.314,2.448,13.973c0.438,2.506,0.878,5.013,1.317,7.519c0.243,1.386,0.7,3.09,0.225,4.439
			c-0.492,1.396-1.376,2.528-2.874,2.869c-0.697,0.159-1.36,0.096-2.064,0.028c-0.302-0.029-0.647-0.058-0.922-0.188
			c-0.493-0.235-0.355-0.339-0.272-0.866c2.088,0.794,3.651-2.411,2.198-3.867c-1.541-1.544-4.127-0.49-4.34,1.617
			c-0.238,2.362,1.914,3.476,3.882,3.693c2.174,0.241,4.022-0.928,4.705-2.978c0.49-1.472,0.217-3.012-0.045-4.503
			c-0.42-2.398-0.84-4.798-1.26-7.195c-0.848-4.841-1.696-9.681-2.544-14.521C20.653,140.431,20.272,140.452,20.208,140.463"/>
		<path fill="none" stroke="#000000" stroke-width="0.4807" stroke-linejoin="round" stroke-miterlimit="10" d="M19.417,159.364
			c2.083,0.18,3.951,0.176,5.85-0.774"/>
		<path stroke="#000000" stroke-width="0.4807" stroke-linejoin="round" stroke-miterlimit="10" d="M25.267,158.589
			c1.272-1.272,2.15-2.865,1.854-4.733c-0.263-1.657-1.497-3.152-3.247-3.372c-1.826-0.228-3.833,0.06-4.762,1.844
			c-0.431,0.826-0.445,1.823-0.113,2.683c0.354,0.913,1.102,1.362,1.876,1.888c-0.413,0.36-1.992-0.982-2.274-1.384
			c-0.664-0.941-0.984-1.783-0.984-2.95c0-2.024,1.716-3.81,3.421-4.632c1.884-0.908,4.382,0.229,5.712,1.56
			c1.448,1.447,1.689,3.64,1.173,5.53C27.5,156.577,26.549,157.656,25.267,158.589"/>
		<path stroke="#000000" stroke-width="0.4807" stroke-linejoin="round" stroke-miterlimit="10" d="M19.417,159.364
			c-2.034-0.331-3.897-1.125-5.121-2.863c-1.199-1.701-1.585-3.859-1.324-5.903c0.266-2.081,0.869-4.173,2.307-5.765
			c1.388-1.535,2.941-2.876,4.431-4.31c1.542-1.481,3.56-3.035,4.457-5.045c0.441-0.988,0.825-1.967,0.938-3.053
			c0.056-0.532,0.073-1.042,0-1.574c-0.011-0.08-0.197-0.695-0.18-0.737c0.063-0.155,0.536-0.354,0.684-0.45
			c1.007,4.188-0.154,8.593-2.946,11.87c-2.636,3.095-7.105,5.544-7.961,9.854c-0.334,1.686-0.039,3.53,0.791,5.028
			C16.383,158.029,17.664,158.884,19.417,159.364"/>
		<path stroke="#000000" stroke-width="0.4807" stroke-linejoin="round" stroke-miterlimit="10" d="M20.208,140.463
			c-0.484-3.388-1.142-7.248,0.054-10.566c0.271-0.753,0.703-1.455,1.219-2.069c0.409-0.488,1.229-1.765,1.931-1.765
			c0.653,0,1.26,1.563,1.497,2.005c0.212,0.396,0.366,0.832,0.545,1.242c0.225,0.517-0.075,0.504-0.529,0.805
			c-1.224-3.161-3.607,1.698-4.104,3.009c-0.877,2.307-0.452,4.971-0.162,7.341C20.521,140.463,20.342,140.496,20.208,140.463"/>
		<path fill="none" stroke="#000000" stroke-width="0.4807" stroke-linejoin="round" stroke-miterlimit="10" d="M34.213,136.198
			v15.39 M34.213,145.99l0.684-1.026"/>
		<path stroke="#000000" stroke-width="0.4807" stroke-linejoin="round" stroke-miterlimit="10" d="M34.896,144.963
			c0.8-0.8,1.509-1.123,2.635-0.728c0.894,0.314,1.016,1.82,0.811,2.595c-0.591,2.229-2.414,3.384-4.129,4.757
			c1.24-1.228,2.452-2.299,2.859-4.056c0.146-0.636,0.253-1.719-0.034-2.334C36.617,144.293,35.583,144.682,34.896,144.963"/>
		
			<line fill="none" stroke="#000000" stroke-width="0.25" stroke-linejoin="round" stroke-miterlimit="10" x1="206.185" y1="159.812" x2="206.185" y2="134.614"/>
		
			<line fill="none" stroke="#000000" stroke-width="0.25" stroke-linejoin="round" stroke-miterlimit="10" x1="206.311" y1="159.812" x2="206.311" y2="134.614"/>
		
			<line fill="none" stroke="#000000" stroke-width="0.25" stroke-linejoin="round" stroke-miterlimit="10" x1="336.559" y1="159.812" x2="336.559" y2="134.614"/>
		
			<line fill="none" stroke="#000000" stroke-width="0.25" stroke-linejoin="round" stroke-miterlimit="10" x1="336.667" y1="159.812" x2="336.667" y2="134.614"/>
		
			<line fill="none" stroke="#000000" stroke-width="0.25" stroke-linejoin="round" stroke-miterlimit="10" x1="440.004" y1="159.812" x2="440.004" y2="134.614"/>
		
			<line fill="none" stroke="#000000" stroke-width="0.25" stroke-linejoin="round" stroke-miterlimit="10" x1="440.131" y1="159.812" x2="440.131" y2="134.614"/>
		
			<line fill="none" stroke="#000000" stroke-width="0.25" stroke-linejoin="round" stroke-miterlimit="10" x1="547.5" y1="159.812" x2="547.5" y2="134.614"/>
		
			<line fill="none" stroke="#000000" stroke-width="0.25" stroke-linejoin="round" stroke-miterlimit="10" x1="547.608" y1="159.812" x2="547.608" y2="134.614"/>
		<text transform="matrix(1 0 0 1 18.293 119.6233)" font-family="'Times-BoldItalic'" font-size="9.7202">8</text>
		<path stroke="#000000" stroke-width="0.4807" stroke-linejoin="round" stroke-miterlimit="10" d="M20.208,83.763
			c0.816,4.658,1.632,9.315,2.448,13.973c0.438,2.507,0.878,5.013,1.317,7.518c0.243,1.387,0.7,3.09,0.225,4.44
			c-0.492,1.396-1.376,2.528-2.874,2.869c-0.697,0.159-1.361,0.096-2.064,0.028c-0.302-0.028-0.648-0.056-0.922-0.188
			c-0.493-0.236-0.355-0.338-0.272-0.865c2.087,0.792,3.654-2.413,2.198-3.868c-1.542-1.542-4.126-0.492-4.34,1.618
			c-0.239,2.362,1.914,3.474,3.882,3.692c2.174,0.242,4.022-0.927,4.705-2.977c0.49-1.471,0.217-3.011-0.045-4.503
			c-0.42-2.398-0.84-4.796-1.26-7.194c-0.848-4.841-1.696-9.682-2.544-14.521C20.653,83.731,20.272,83.752,20.208,83.763"/>
		<path fill="none" stroke="#000000" stroke-width="0.4807" stroke-linejoin="round" stroke-miterlimit="10" d="M19.417,102.663
			c2.083,0.18,3.951,0.175,5.85-0.774"/>
		<path stroke="#000000" stroke-width="0.4807" stroke-linejoin="round" stroke-miterlimit="10" d="M25.267,101.889
			c1.272-1.271,2.15-2.865,1.854-4.732c-0.263-1.658-1.497-3.153-3.247-3.372c-1.825-0.229-3.834,0.058-4.762,1.843
			c-0.431,0.828-0.445,1.823-0.113,2.682c0.354,0.913,1.102,1.362,1.876,1.889c-0.415,0.358-1.991-0.983-2.274-1.385
			c-0.664-0.941-0.984-1.782-0.984-2.949c0-2.025,1.715-3.812,3.421-4.633c1.885-0.905,4.381,0.228,5.712,1.559
			c1.448,1.448,1.689,3.64,1.173,5.532C27.5,99.877,26.549,100.957,25.267,101.889"/>
		<path stroke="#000000" stroke-width="0.4807" stroke-linejoin="round" stroke-miterlimit="10" d="M19.417,102.663
			c-2.034-0.331-3.897-1.125-5.121-2.862c-1.199-1.702-1.585-3.861-1.324-5.904c0.266-2.082,0.869-4.171,2.307-5.764
			c1.388-1.536,2.941-2.876,4.431-4.309c1.542-1.483,3.56-3.037,4.457-5.047c0.441-0.988,0.824-1.967,0.938-3.053
			c0.056-0.533,0.073-1.042,0-1.575c-0.011-0.079-0.197-0.695-0.18-0.737c0.063-0.156,0.536-0.354,0.684-0.45
			c1.007,4.188-0.154,8.593-2.946,11.871c-2.636,3.094-7.105,5.543-7.961,9.854c-0.334,1.686-0.039,3.53,0.791,5.028
			C16.383,101.329,17.664,102.185,19.417,102.663"/>
		<path stroke="#000000" stroke-width="0.4807" stroke-linejoin="round" stroke-miterlimit="10" d="M20.208,83.763
			c-0.484-3.388-1.141-7.248,0.054-10.564c0.271-0.755,0.703-1.456,1.219-2.071c0.41-0.488,1.229-1.763,1.931-1.763
			c0.654,0,1.259,1.562,1.497,2.005c0.212,0.395,0.366,0.831,0.545,1.24c0.225,0.517-0.075,0.505-0.529,0.805
			c-1.225-3.16-3.607,1.699-4.104,3.009c-0.876,2.307-0.452,4.97-0.162,7.34C20.521,83.763,20.342,83.796,20.208,83.763"/>
		<path fill="none" stroke="#000000" stroke-width="0.4807" stroke-linejoin="round" stroke-miterlimit="10" d="M34.213,79.497
			v15.39 M34.213,89.289l0.684-1.026"/>
		<path stroke="#000000" stroke-width="0.4807" stroke-linejoin="round" stroke-miterlimit="10" d="M34.896,88.263
			c0.8-0.8,1.509-1.122,2.635-0.727c0.894,0.313,1.016,1.82,0.811,2.594c-0.591,2.229-2.413,3.384-4.129,4.757
			c1.24-1.226,2.452-2.298,2.859-4.055c0.146-0.635,0.254-1.719-0.034-2.334C36.617,87.593,35.583,87.982,34.896,88.263"/>
		
			<line fill="none" stroke="#000000" stroke-width="0.25" stroke-linejoin="round" stroke-miterlimit="10" x1="206.185" y1="103.114" x2="206.185" y2="77.913"/>
		
			<line fill="none" stroke="#000000" stroke-width="0.25" stroke-linejoin="round" stroke-miterlimit="10" x1="206.311" y1="103.114" x2="206.311" y2="77.913"/>
		
			<line fill="none" stroke="#000000" stroke-width="0.25" stroke-linejoin="round" stroke-miterlimit="10" x1="336.559" y1="103.114" x2="336.559" y2="77.913"/>
		
			<line fill="none" stroke="#000000" stroke-width="0.25" stroke-linejoin="round" stroke-miterlimit="10" x1="336.667" y1="103.114" x2="336.667" y2="77.913"/>
		
			<line fill="none" stroke="#000000" stroke-width="0.25" stroke-linejoin="round" stroke-miterlimit="10" x1="440.004" y1="103.114" x2="440.004" y2="77.913"/>
		
			<line fill="none" stroke="#000000" stroke-width="0.25" stroke-linejoin="round" stroke-miterlimit="10" x1="440.131" y1="103.114" x2="440.131" y2="77.913"/>
		
			<line fill="none" stroke="#000000" stroke-width="0.25" stroke-linejoin="round" stroke-miterlimit="10" x1="547.5" y1="103.114" x2="547.5" y2="77.913"/>
		
			<line fill="none" stroke="#000000" stroke-width="0.25" stroke-linejoin="round" stroke-miterlimit="10" x1="547.608" y1="103.114" x2="547.608" y2="77.913"/>
		<text transform="matrix(1 0 0 1 0 8.6077)" font-family="'Times-Italic'" font-size="10.4145">234</text>
		<path stroke="#000000" stroke-width="0.4807" stroke-linejoin="round" stroke-miterlimit="10" d="M20.208,27.063
			c0.816,4.658,1.632,9.315,2.448,13.974c0.438,2.506,0.878,5.012,1.317,7.517c0.243,1.386,0.7,3.09,0.225,4.441
			c-0.492,1.396-1.375,2.527-2.874,2.869c-0.697,0.158-1.361,0.095-2.064,0.027c-0.302-0.027-0.647-0.056-0.922-0.188
			c-0.493-0.236-0.355-0.338-0.272-0.866c1.935,0.734,3.749-2.321,2.302-3.764c-1.664-1.66-3.954-0.658-4.431,1.456
			c-0.502,2.227,1.916,3.534,3.69,3.73c2.116,0.235,4.133-0.702,4.83-2.795c0.507-1.521,0.293-3.042,0.022-4.589
			c-0.414-2.361-0.827-4.721-1.241-7.082c-0.858-4.898-1.716-9.796-2.574-14.694C20.649,27.007,20.29,27.049,20.208,27.063"/>
		<path fill="none" stroke="#000000" stroke-width="0.4807" stroke-linejoin="round" stroke-miterlimit="10" d="M19.417,45.963
			c2.083,0.18,3.951,0.175,5.85-0.774"/>
		<path stroke="#000000" stroke-width="0.4807" stroke-linejoin="round" stroke-miterlimit="10" d="M25.267,45.189
			c1.272-1.271,2.15-2.864,1.854-4.733c-0.263-1.658-1.497-3.153-3.247-3.372c-1.825-0.229-3.834,0.058-4.762,1.843
			c-0.43,0.828-0.446,1.823-0.113,2.682c0.354,0.914,1.101,1.363,1.876,1.89c-0.414,0.358-1.992-0.983-2.274-1.384
			c-0.664-0.942-0.984-1.783-0.984-2.95c0-2.024,1.715-3.813,3.421-4.632c1.887-0.905,4.38,0.225,5.712,1.558
			c1.448,1.448,1.689,3.64,1.173,5.531C27.5,43.177,26.549,44.256,25.267,45.189"/>
		<path stroke="#000000" stroke-width="0.4807" stroke-linejoin="round" stroke-miterlimit="10" d="M19.417,45.963
			c-2.034-0.33-3.897-1.125-5.121-2.862c-1.199-1.702-1.585-3.86-1.324-5.903c0.267-2.083,0.869-4.172,2.307-5.765
			c1.387-1.536,2.941-2.876,4.431-4.309c1.542-1.483,3.56-3.037,4.457-5.046c0.441-0.989,0.825-1.966,0.938-3.053
			c0.056-0.532,0.073-1.043,0-1.574c-0.011-0.08-0.197-0.696-0.18-0.738c0.063-0.156,0.536-0.354,0.684-0.45
			c1.006,4.189-0.154,8.593-2.946,11.871c-2.636,3.094-7.105,5.543-7.961,9.855c-0.334,1.685-0.038,3.529,0.791,5.027
			C16.383,44.629,17.664,45.485,19.417,45.963"/>
		<path stroke="#000000" stroke-width="0.4807" stroke-linejoin="round" stroke-miterlimit="10" d="M20.208,27.063
			c-0.484-3.388-1.141-7.248,0.054-10.565c0.271-0.754,0.703-1.456,1.219-2.071c0.41-0.488,1.229-1.763,1.931-1.763
			c0.653,0,1.259,1.562,1.497,2.005c0.212,0.395,0.366,0.831,0.545,1.241c0.225,0.516-0.075,0.504-0.529,0.804
			c-1.225-3.16-3.607,1.699-4.104,3.009c-0.876,2.308-0.452,4.97-0.162,7.341C20.521,27.063,20.342,27.096,20.208,27.063"/>
		<path fill="none" stroke="#000000" stroke-width="0.4807" stroke-linejoin="round" stroke-miterlimit="10" d="M34.213,22.797
			v15.39 M34.213,32.589l0.684-1.026"/>
		<path stroke="#000000" stroke-width="0.4807" stroke-linejoin="round" stroke-miterlimit="10" d="M34.896,31.563
			c0.8-0.8,1.509-1.122,2.635-0.727c0.894,0.313,1.016,1.821,0.811,2.593c-0.591,2.229-2.413,3.384-4.129,4.757
			c1.24-1.226,2.452-2.298,2.859-4.055c0.146-0.635,0.254-1.72-0.034-2.335C36.616,30.893,35.583,31.282,34.896,31.563"/>
		
			<line fill="none" stroke="#000000" stroke-width="0.25" stroke-linejoin="round" stroke-miterlimit="10" x1="206.185" y1="46.413" x2="206.185" y2="21.213"/>
		
			<line fill="none" stroke="#000000" stroke-width="0.25" stroke-linejoin="round" stroke-miterlimit="10" x1="206.311" y1="46.413" x2="206.311" y2="21.213"/>
		
			<line fill="none" stroke="#000000" stroke-width="0.25" stroke-linejoin="round" stroke-miterlimit="10" x1="336.559" y1="46.413" x2="336.559" y2="21.213"/>
		
			<line fill="none" stroke="#000000" stroke-width="0.25" stroke-linejoin="round" stroke-miterlimit="10" x1="336.667" y1="46.413" x2="336.667" y2="21.213"/>
		
			<line fill="none" stroke="#000000" stroke-width="0.25" stroke-linejoin="round" stroke-miterlimit="10" x1="440.004" y1="46.413" x2="440.004" y2="21.213"/>
		
			<line fill="none" stroke="#000000" stroke-width="0.25" stroke-linejoin="round" stroke-miterlimit="10" x1="440.131" y1="46.413" x2="440.131" y2="21.213"/>
		
			<line fill="none" stroke="#000000" stroke-width="0.25" stroke-linejoin="round" stroke-miterlimit="10" x1="547.5" y1="46.413" x2="547.5" y2="21.213"/>
		
			<line fill="none" stroke="#000000" stroke-width="0.25" stroke-linejoin="round" stroke-miterlimit="10" x1="547.608" y1="46.413" x2="547.608" y2="21.213"/>
	</g>
	<g id="Layer_3">
		<path stroke="#000000" stroke-width="0.4807" stroke-linejoin="round" stroke-miterlimit="10" d="M457.543,219.281
			c-0.42-2.231-2.791-2.642-4.723-2.642c-1.822,0.22-4.363,1.019-3.912,3.408c0.395,2.096,2.832,2.863,4.754,2.634
			C455.469,222.465,457.989,221.645,457.543,219.281z M453.663,222.579c-1.844,0-2.24-1.323-2.658-2.895
			c-0.436-1.636-0.018-2.657,1.709-2.938c1.867,0,2.322,1.26,2.723,2.894C455.799,221.124,455.518,222.579,453.663,222.579z"/>
		<path stroke="#000000" stroke-width="0.4807" stroke-linejoin="round" stroke-miterlimit="10" d="M482.106,206.164
			c-0.289-0.287-0.217,0.652-0.217,0.721c0,0.384-2.119,0.179-2.486,0.179c-1.545,0-3.09,0-4.635,0c-0.393,0-0.781,0-1.174,0
			c-0.316,0-0.145-0.598-0.145-0.85c0-0.091-0.217-0.071-0.217-0.024c0,0.119,0,0.237,0,0.356c0,0.495,0,0.99,0,1.486
			c0,1.396,0,2.793,0,4.189c0,0.319-0.209,2.123,0.217,2.041c0-0.257-0.176-0.898,0.145-0.898c0.494,0,0.988,0,1.482,0
			c1.561,0,3.121,0,4.684,0c0.559,0,1.117,0,1.676,0c0.51,0,0.453-0.051,0.453,0.504c0,0.333,0.217,0.78,0.217,0.288
			c0-0.541,0-1.083,0-1.624c0-1.564,0-3.131,0-4.694c0-0.486,0-0.972,0-1.458C482.106,206.353,482.127,206.186,482.106,206.164z
			 M481.795,212.337c-0.408,0-0.816,0-1.225,0c-2.373,0-4.748,0-7.121,0c0-1.194,0-2.39,0-3.584c0-0.161-0.113-0.664,0.094-0.664
			c0.41,0,0.818,0,1.227,0c1.482,0,2.967,0,4.449,0c0.633,0,1.262,0,1.893,0c0.105,0,0.703-0.081,0.779,0
			c0.145,0.151,0,1.143,0,1.344c0,0.747,0,1.494,0,2.24C481.891,211.834,482.002,212.337,481.795,212.337z"/>
		<path stroke="#000000" stroke-width="0.4807" stroke-linejoin="round" stroke-miterlimit="10" d="M530.317,209.829
			c-0.416-2.23-2.793-2.641-4.723-2.641c-1.826,0.219-4.357,1.018-3.912,3.407c0.391,2.094,2.836,2.865,4.756,2.635
			C528.247,213.013,530.758,212.195,530.317,209.829z M526.495,213.129c-1.867,0.145-2.314-1.381-2.715-2.895
			c-0.438-1.635-0.021-2.656,1.707-2.938c1.869,0,2.32,1.26,2.723,2.894C528.588,211.73,528.292,212.99,526.495,213.129z"/>
		<path stroke="#000000" stroke-width="0.4807" stroke-linejoin="round" stroke-miterlimit="10" d="M448.897,140.913
			c0,0.877,0,1.754,0,2.632c0,0.149,1.568,0.068,1.752,0.068c1.266,0,2.529,0,3.797,0c0.314,0,1.861,0.226,2.102,0
			c0.109-0.104,0-0.915,0-1.062c0-0.523,0-1.046,0-1.569c0-0.149-1.57-0.067-1.754-0.067
			C452.829,140.913,450.862,140.913,448.897,140.913"/>
		<path stroke="#000000" stroke-width="0.4807" stroke-linejoin="round" stroke-miterlimit="10" d="M506.143,156.281
			c-0.414-2.231-2.793-2.642-4.723-2.642c-1.826,0.22-4.357,1.018-3.912,3.408c0.393,2.096,2.834,2.863,4.754,2.634
			C504.073,159.465,506.584,158.645,506.143,156.281z M502.321,159.579c-1.867,0.145-2.314-1.381-2.715-2.895
			c-0.438-1.634-0.021-2.66,1.707-2.938c1.867,0,2.322,1.259,2.723,2.893C504.415,158.18,504.118,159.439,502.321,159.579z"/>
		<path stroke="#000000" stroke-width="0.4807" stroke-linejoin="round" stroke-miterlimit="10" d="M457.663,95.913
			c-0.289-0.288-0.217,0.653-0.217,0.722c0,0.384-2.121,0.178-2.486,0.178c-1.545,0-3.09,0-4.635,0c-0.393,0-0.783,0-1.174,0
			c-0.318,0-0.146-0.598-0.146-0.85c0-0.091-0.215-0.072-0.215-0.024c0,0.119,0,0.237,0,0.356c0,0.496,0,0.991,0,1.486
			c0,1.396,0,2.794,0,4.19c0,0.319-0.209,2.122,0.215,2.041c0-0.257-0.176-0.899,0.146-0.899c0.494,0,0.986,0,1.48,0
			c1.562,0,3.123,0,4.686,0c0.559,0,1.115,0,1.676,0c0.51,0,0.453-0.05,0.453,0.504c0,0.333,0.217,0.78,0.217,0.288
			c0-0.542,0-1.083,0-1.624c0-1.565,0-3.131,0-4.694c0-0.486,0-0.972,0-1.458C457.663,96.101,457.682,95.935,457.663,95.913z
			 M457.352,102.087c-0.408,0-0.816,0-1.225,0c-2.375,0-4.748,0-7.123,0c0-1.195,0-2.39,0-3.584c0-0.161-0.111-0.664,0.096-0.664
			c0.408,0,0.816,0,1.225,0c1.484,0,2.967,0,4.451,0c0.631,0,1.262,0,1.893,0c0.105,0,0.701-0.081,0.779,0
			c0.143,0.15,0,1.143,0,1.344c0,0.746,0,1.493,0,2.24C457.448,101.584,457.559,102.087,457.352,102.087z"/>
		
			<line fill="none" stroke="#000000" stroke-width="0.4807" stroke-linejoin="round" stroke-miterlimit="10" x1="457.573" y1="99.009" x2="457.573" y2="77.913"/>
		<path stroke="#000000" stroke-width="0.4807" stroke-linejoin="round" stroke-miterlimit="10" d="M455.969,50.355
			c-2.426-2.427-8.924,1.555-6.514,4.717c1.418,1.08,3.568,0.738,4.982-0.259C455.754,53.885,457.545,51.931,455.969,50.355z
			 M454.051,53.491c-0.889,0.535-1.775,1.071-2.664,1.607c-0.58,0.35-1.16,0.423-1.717-0.027c-0.428-0.596-0.912-1.378-0.168-1.943
			c0.59-0.45,1.236-0.811,1.871-1.193c0.889-0.536,1.777-1.071,2.666-1.607c0.564-0.341,1.178-0.437,1.715,0.027
			C457.413,51.789,455.096,52.861,454.051,53.491z"/>
		
			<line fill="none" stroke="#000000" stroke-width="0.7211" stroke-linejoin="round" stroke-miterlimit="10" x1="446.647" y1="52.713" x2="458.797" y2="52.713"/>
		
			<line fill="none" stroke="#000000" stroke-width="0.4807" stroke-linejoin="round" stroke-miterlimit="10" x1="456.547" y1="51.759" x2="456.547" y2="30.663"/>
		<path stroke="#000000" stroke-width="0.4807" stroke-linejoin="round" stroke-miterlimit="10" d="M480.415,47.205
			c-2.426-2.429-8.92,1.55-6.516,4.716c1.42,1.079,3.566,0.741,4.982-0.258C480.198,50.736,481.989,48.781,480.415,47.205z
			 M478.497,50.342c-1.025,0.617-3.139,2.579-4.383,1.579c-0.426-0.594-0.912-1.379-0.168-1.944
			c0.592-0.449,1.234-0.809,1.873-1.192c0.887-0.536,1.773-1.072,2.664-1.608c0.562-0.34,1.18-0.435,1.717,0.029
			C481.858,48.639,479.54,49.712,478.497,50.342z"/>
		
			<line fill="none" stroke="#000000" stroke-width="0.4807" stroke-linejoin="round" stroke-miterlimit="10" x1="480.991" y1="48.609" x2="480.991" y2="27.513"/>
		<path stroke="#000000" stroke-width="0.4807" stroke-linejoin="round" stroke-miterlimit="10" d="M504.571,53.505
			c-2.426-2.428-8.922,1.551-6.516,4.716c1.42,1.08,3.568,0.74,4.984-0.258C504.356,57.035,506.145,55.081,504.571,53.505z
			 M502.653,56.642c-0.889,0.536-1.777,1.072-2.666,1.608c-0.578,0.349-1.16,0.421-1.715-0.029c-0.43-0.595-0.914-1.379-0.17-1.944
			c0.592-0.448,1.236-0.809,1.873-1.192c0.889-0.535,1.775-1.071,2.664-1.607c0.562-0.34,1.18-0.436,1.717,0.028
			C506.012,54.939,503.698,56.012,502.653,56.642z"/>
		
			<line fill="none" stroke="#000000" stroke-width="0.7211" stroke-linejoin="round" stroke-miterlimit="10" x1="495.247" y1="52.713" x2="507.397" y2="52.713"/>
		
			<line fill="none" stroke="#000000" stroke-width="0.4807" stroke-linejoin="round" stroke-miterlimit="10" x1="505.147" y1="54.909" x2="505.147" y2="33.813"/>
		<path stroke="#000000" stroke-width="0.4807" stroke-linejoin="round" stroke-miterlimit="10" d="M528.745,47.205
			c-2.428-2.428-8.92,1.55-6.516,4.716c1.422,1.079,3.566,0.741,4.984-0.258C528.53,50.735,530.319,48.781,528.745,47.205z
			 M526.825,50.342c-0.887,0.535-1.775,1.071-2.664,1.607c-0.58,0.35-1.158,0.42-1.717-0.028c-0.426-0.595-0.912-1.379-0.168-1.944
			c0.592-0.449,1.234-0.809,1.873-1.192c0.887-0.536,1.773-1.072,2.664-1.608c0.562-0.34,1.178-0.435,1.715,0.029
			C530.188,48.638,527.87,49.712,526.825,50.342z"/>
		
			<line fill="none" stroke="#000000" stroke-width="0.4807" stroke-linejoin="round" stroke-miterlimit="10" x1="529.321" y1="48.609" x2="529.321" y2="27.513"/>
		<path stroke="#000000" stroke-width="0.4807" stroke-linejoin="round" stroke-miterlimit="10" d="M347.452,203.913
			c0-1.864,0-3.729,0-5.595c0-0.855,0.008-0.705,0.889-0.705c0.564,0,1.131,0,1.697,0c0.153,0,0.948-0.112,1.062,0
			c0.229,0.226,0,1.865,0,2.18c0,1.138,0,2.274,0,3.414c0,0.855-0.01,0.706-0.889,0.706
			C349.292,203.913,348.372,203.913,347.452,203.913"/>
		<path stroke="#000000" stroke-width="0.4807" stroke-linejoin="round" stroke-miterlimit="10" d="M389.478,215.615
			c-0.289-0.287-0.216,0.652-0.216,0.721c0,0.384-2.122,0.179-2.487,0.179c-1.545,0-3.091,0-4.636,0c-0.393,0-0.782,0-1.174,0
			c-0.317,0-0.145-0.598-0.145-0.85c0-0.091-0.217-0.071-0.217-0.024c0,0.119,0,0.237,0,0.356c0,0.495,0,0.989,0,1.485
			c0,1.396,0,2.794,0,4.19c0,0.318-0.208,2.122,0.217,2.041c0-0.257-0.177-0.9,0.145-0.9c0.494,0,0.988,0,1.482,0
			c1.561,0,3.122,0,4.684,0c0.56,0,1.117,0,1.677,0c0.51,0,0.454-0.05,0.454,0.504c0,0.333,0.216,0.782,0.216,0.289
			c0-0.541,0-1.083,0-1.624c0-1.564,0-3.13,0-4.693c0-0.486,0-0.973,0-1.458C389.478,215.802,389.499,215.636,389.478,215.615z
			 M389.168,221.787c-0.41,0-0.817,0-1.226,0c-2.374,0-4.749,0-7.122,0c0-1.194,0-2.391,0-3.584c0-0.161-0.113-0.664,0.094-0.664
			c0.41,0,0.817,0,1.226,0c1.483,0,2.968,0,4.452,0c0.631,0,1.261,0,1.892,0c0.104,0,0.702-0.081,0.778,0
			c0.145,0.15,0,1.143,0,1.344c0,0.747,0,1.494,0,2.24C389.262,221.284,389.375,221.787,389.168,221.787z"/>
		<path stroke="#000000" stroke-width="0.4807" stroke-linejoin="round" stroke-miterlimit="10" d="M354.217,152.615
			c-0.289-0.287-0.217,0.652-0.217,0.721c0,0.384-2.121,0.179-2.486,0.179c-1.545,0-3.092,0-4.637,0c-0.392,0-0.781,0-1.172,0
			c-0.318,0-0.146-0.598-0.146-0.85c0-0.091-0.217-0.071-0.217-0.024c0,0.119,0,0.237,0,0.356c0,0.495,0,0.989,0,1.485
			c0,1.396,0,2.794,0,4.19c0,0.318-0.207,2.122,0.217,2.041c0-0.257-0.176-0.9,0.146-0.9c0.494,0,0.986,0,1.48,0
			c1.562,0,3.123,0,4.686,0c0.559,0,1.117,0,1.676,0c0.51,0,0.453-0.05,0.453,0.504c0,0.333,0.217,0.782,0.217,0.289
			c0-0.541,0-1.083,0-1.624c0-1.564,0-3.13,0-4.693c0-0.486,0-0.973,0-1.458C354.217,152.802,354.239,152.636,354.217,152.615z
			 M353.907,158.787c-0.408,0-0.816,0-1.225,0c-2.374,0-4.749,0-7.123,0c0-1.194,0-2.391,0-3.584c0-0.161-0.111-0.664,0.096-0.664
			c0.408,0,0.816,0,1.225,0c1.482,0,2.967,0,4.451,0c0.631,0,1.262,0,1.893,0c0.105,0,0.701-0.081,0.779,0
			c0.144,0.15,0,1.143,0,1.344c0,0.747,0,1.494,0,2.24C354.002,158.284,354.114,158.787,353.907,158.787z"/>
		<path stroke="#000000" stroke-width="0.4807" stroke-linejoin="round" stroke-miterlimit="10" d="M354.217,102.213
			c-0.289-0.288-0.217,0.654-0.217,0.722c0,0.384-2.121,0.179-2.486,0.179c-1.545,0-3.092,0-4.637,0c-0.392,0-0.781,0-1.172,0
			c-0.318,0-0.146-0.599-0.146-0.851c0-0.091-0.217-0.072-0.217-0.023c0,0.118,0,0.236,0,0.355c0,0.496,0,0.991,0,1.487
			c0,1.396,0,2.794,0,4.189c0,0.319-0.207,2.122,0.217,2.041c0-0.257-0.176-0.899,0.146-0.899c0.494,0,0.986,0,1.48,0
			c1.562,0,3.123,0,4.686,0c0.559,0,1.117,0,1.676,0c0.51,0,0.453-0.05,0.453,0.504c0,0.333,0.217,0.781,0.217,0.288
			c0-0.542,0-1.083,0-1.624c0-1.565,0-3.13,0-4.694c0-0.486,0-0.972,0-1.458C354.217,102.401,354.239,102.235,354.217,102.213z
			 M353.907,108.387c-0.408,0-0.816,0-1.225,0c-2.374,0-4.749,0-7.123,0c0-1.195,0-2.39,0-3.584c0-0.162-0.111-0.664,0.096-0.664
			c0.408,0,0.816,0,1.225,0c1.482,0,2.967,0,4.451,0c0.631,0,1.262,0,1.893,0c0.105,0,0.701-0.081,0.779,0
			c0.144,0.15,0,1.144,0,1.344c0,0.746,0,1.493,0,2.24C354.002,107.885,354.114,108.387,353.907,108.387z"/>
		<path stroke="#000000" stroke-width="0.4807" stroke-linejoin="round" stroke-miterlimit="10" d="M389.478,105.362
			c-0.289-0.287-0.216,0.654-0.216,0.723c0,0.384-2.121,0.178-2.487,0.178c-1.545,0-3.091,0-4.636,0c-0.393,0-0.782,0-1.174,0
			c-0.317,0-0.145-0.598-0.145-0.85c0-0.091-0.217-0.072-0.217-0.024c0,0.119,0,0.237,0,0.356c0,0.496,0,0.99,0,1.486
			c0,1.397,0,2.793,0,4.191c0,0.318-0.208,2.122,0.217,2.041c0-0.257-0.177-0.9,0.145-0.9c0.494,0,0.988,0,1.482,0
			c1.561,0,3.122,0,4.684,0c0.56,0,1.117,0,1.677,0c0.509,0,0.454-0.05,0.454,0.503c0,0.333,0.216,0.78,0.216,0.288
			c0-0.542,0-1.083,0-1.624c0-1.564,0-3.129,0-4.693c0-0.486,0-0.973,0-1.458C389.478,105.55,389.499,105.384,389.478,105.362z
			 M389.168,111.537c-0.41,0-0.817,0-1.226,0c-2.374,0-4.749,0-7.122,0c0-1.195,0-2.391,0-3.584c0-0.162-0.113-0.664,0.094-0.664
			c0.41,0,0.817,0,1.226,0c1.483,0,2.968,0,4.452,0c0.631,0,1.261,0,1.892,0c0.104,0,0.702-0.081,0.778,0
			c0.145,0.149,0,1.143,0,1.344c0,0.746,0,1.493,0,2.24C389.262,111.035,389.375,111.537,389.168,111.537z"/>
		
			<line fill="none" stroke="#000000" stroke-width="0.7211" stroke-linejoin="round" stroke-miterlimit="10" x1="378.463" y1="109.413" x2="391.512" y2="109.413"/>
		<path stroke="#000000" stroke-width="0.4807" stroke-linejoin="round" stroke-miterlimit="10" d="M354.098,42.879
			c-0.416-2.23-2.793-2.64-4.723-2.64c-1.826,0.219-4.358,1.017-3.912,3.407c0.39,2.094,2.834,2.866,4.754,2.635
			C352.027,46.063,354.538,45.245,354.098,42.879z M350.217,46.179c-1.846,0-2.24-1.322-2.658-2.893
			c-0.436-1.637-0.02-2.658,1.708-2.939c1.866,0,2.323,1.259,2.722,2.894C352.353,44.724,352.073,46.179,350.217,46.179z"/>
		<path stroke="#000000" stroke-width="0.4807" stroke-linejoin="round" stroke-miterlimit="10" d="M357.15,43.479
			c0-0.312,0.019-1.008,0.509-1.008c0.428,0,0.949,0.107,0.949,0.646c0,0.519-0.293,0.812-0.812,0.812
			c-0.574,0-0.646-0.564-0.646-1.008"/>
		<path stroke="#000000" stroke-width="0.4807" stroke-linejoin="round" stroke-miterlimit="10" d="M406.292,49.437
			c1.918,0,3.592-0.751,4.85-2.204c1.307-1.511,0.555-3.64-1.467-3.844c-1.828-0.185-3.699,0.844-4.838,2.204
			C403.471,47.223,404.336,49.06,406.292,49.437"/>
		
			<line fill="none" stroke="#000000" stroke-width="0.4807" stroke-linejoin="round" stroke-miterlimit="10" x1="411.817" y1="45.459" x2="411.817" y2="24.364"/>
		<path stroke="#000000" stroke-width="0.4807" stroke-linejoin="round" stroke-miterlimit="10" d="M423.229,52.587
			c1.92,0,3.592-0.75,4.85-2.204c1.307-1.511,0.557-3.642-1.465-3.844c-1.83-0.184-3.699,0.843-4.838,2.204
			C420.409,50.374,421.276,52.209,423.229,52.587"/>
		
			<line fill="none" stroke="#000000" stroke-width="0.4807" stroke-linejoin="round" stroke-miterlimit="10" x1="428.754" y1="48.609" x2="428.754" y2="27.513"/>
		<path fill="none" stroke="#000000" stroke-width="1.9229" stroke-linejoin="round" stroke-miterlimit="10" d="M220.351,209.369
			c4.135,2.386,9.45-0.699,9.45-5.456s-5.315-7.842-9.45-5.456"/>
		<path stroke="#000000" stroke-width="0.4807" stroke-linejoin="round" stroke-miterlimit="10" d="M259.501,215.615
			c-0.29-0.288-0.216,0.653-0.216,0.721c0,0.384-2.122,0.179-2.487,0.179c-1.545,0-3.09,0-4.635,0c-0.391,0-0.782,0-1.173,0
			c-0.319,0-0.146-0.598-0.146-0.85c0-0.091-0.216-0.071-0.216-0.024c0,0.119,0,0.237,0,0.356c0,0.495,0,0.989,0,1.485
			c0,1.396,0,2.794,0,4.19c-0.001,0.318-0.21,2.122,0.215,2.041c0-0.257-0.176-0.9,0.146-0.9c0.494,0,0.987,0,1.48,0
			c1.562,0,3.123,0,4.685,0c0.559,0,1.118,0,1.677,0c0.509,0,0.454-0.05,0.454,0.504c0,0.333,0.216,0.782,0.216,0.289
			c0-0.541,0-1.083,0-1.624c0-1.564,0-3.13,0-4.693c0-0.486,0-0.973,0-1.458C259.501,215.802,259.523,215.636,259.501,215.615z
			 M259.19,221.787c-0.408,0-0.816,0-1.224,0c-2.374,0-4.749,0-7.123,0c0-1.194,0-2.391-0.001-3.584
			c0-0.161-0.113-0.664,0.095-0.664c0.409,0,0.817,0,1.225,0c1.484,0,2.968,0,4.452,0c0.63,0,1.261,0,1.892,0
			c0.105,0,0.702-0.081,0.779,0c0.144,0.15,0,1.143,0,1.344c0,0.747,0,1.494,0,2.24C259.285,221.284,259.398,221.787,259.19,221.787
			z"/>
		
			<line fill="none" stroke="#000000" stroke-width="0.4807" stroke-linejoin="round" stroke-miterlimit="10" x1="259.375" y1="215.559" x2="259.375" y2="194.463"/>
		<path fill="none" stroke="#000000" stroke-width="1.9229" stroke-linejoin="round" stroke-miterlimit="10" d="M226.65,141.757
			c-4.135-2.387-9.45,0.7-9.45,5.456s5.315,7.843,9.45,5.456"/>
		
			<line fill="none" stroke="#000000" stroke-width="1.2018" stroke-linejoin="round" stroke-miterlimit="10" x1="223.501" y1="156.663" x2="223.501" y2="137.763"/>
		<path stroke="#000000" stroke-width="0.4807" stroke-linejoin="round" stroke-miterlimit="10" d="M259.501,152.615
			c-0.29-0.288-0.216,0.653-0.216,0.721c0,0.384-2.122,0.179-2.487,0.179c-1.545,0-3.09,0-4.635,0c-0.391,0-0.782,0-1.173,0
			c-0.319,0-0.146-0.598-0.146-0.85c0-0.091-0.216-0.071-0.216-0.024c0,0.119,0,0.237,0,0.356c0,0.495,0,0.989,0,1.485
			c0,1.396,0,2.794,0,4.19c-0.001,0.318-0.21,2.122,0.215,2.041c0-0.257-0.176-0.9,0.146-0.9c0.494,0,0.987,0,1.48,0
			c1.562,0,3.123,0,4.685,0c0.559,0,1.118,0,1.677,0c0.509,0,0.454-0.05,0.454,0.504c0,0.333,0.216,0.782,0.216,0.289
			c0-0.541,0-1.083,0-1.624c0-1.564,0-3.13,0-4.693c0-0.486,0-0.973,0-1.458C259.501,152.802,259.523,152.636,259.501,152.615z
			 M259.19,158.787c-0.408,0-0.816,0-1.224,0c-2.374,0-4.749,0-7.123,0c0-1.194,0-2.391-0.001-3.584
			c0-0.161-0.113-0.664,0.095-0.664c0.409,0,0.817,0,1.225,0c1.484,0,2.968,0,4.452,0c0.63,0,1.261,0,1.892,0
			c0.105,0,0.702-0.081,0.779,0c0.144,0.15,0,1.143,0,1.344c0,0.747,0,1.494,0,2.24C259.285,158.284,259.398,158.787,259.19,158.787
			z"/>
		<path stroke="#000000" stroke-width="0.3605" stroke-linejoin="round" stroke-miterlimit="10" d="M262.885,161.379
			c8.214,2.408,16.647,3.862,25.194,4.378c8.488,0.512,17.076,0.535,25.573,0.187c8.604-0.353,17.099-1.421,25.454-3.53
			c1.225-0.311,2.434-0.679,3.645-1.033c-8.178,2.559-16.508,4.299-25.051,5.077c-8.451,0.769-17.062,0.919-25.529,0.312
			c-8.65-0.617-17.17-1.87-25.529-4.232C265.381,162.18,264.134,161.77,262.885,161.379"/>
		<path fill="none" stroke="#000000" stroke-width="1.9229" stroke-linejoin="round" stroke-miterlimit="10" d="M220.351,95.969
			c4.135,2.388,9.45-0.7,9.45-5.456s-5.316-7.843-9.45-5.456"/>
		<path stroke="#000000" stroke-width="0.4807" stroke-linejoin="round" stroke-miterlimit="10" d="M259.501,105.362
			c-0.289-0.287-0.216,0.654-0.216,0.723c0,0.384-2.122,0.178-2.487,0.178c-1.545,0-3.09,0-4.635,0c-0.391,0-0.782,0-1.173,0
			c-0.319,0-0.146-0.598-0.146-0.85c0-0.091-0.216-0.072-0.216-0.024c0,0.119,0,0.237,0,0.356c0,0.496,0,0.99,0,1.486
			c0,1.397,0,2.793,0,4.191c-0.001,0.318-0.21,2.122,0.215,2.041c0-0.257-0.176-0.9,0.146-0.9c0.494,0,0.987,0,1.48,0
			c1.562,0,3.123,0,4.685,0c0.559,0,1.118,0,1.677,0c0.509,0,0.454-0.05,0.454,0.503c0,0.333,0.216,0.78,0.216,0.288
			c0-0.542,0-1.083,0-1.624c0-1.564,0-3.129,0-4.693c0-0.486,0-0.973,0-1.458C259.501,105.55,259.523,105.384,259.501,105.362z
			 M259.19,111.537c-0.408,0-0.816,0-1.224,0c-2.374,0-4.749,0-7.123,0c0-1.195,0-2.391-0.001-3.584
			c0-0.161-0.113-0.664,0.095-0.664c0.409,0,0.817,0,1.225,0c1.484,0,2.968,0,4.452,0c0.63,0,1.261,0,1.892,0
			c0.105,0,0.702-0.081,0.779,0c0.144,0.149,0,1.143,0,1.344c0,0.746,0,1.493,0,2.24
			C259.285,111.034,259.398,111.537,259.19,111.537z"/>
		
			<line fill="none" stroke="#000000" stroke-width="0.7211" stroke-linejoin="round" stroke-miterlimit="10" x1="248.484" y1="109.413" x2="261.535" y2="109.413"/>
		<path stroke="#000000" stroke-width="0.4807" stroke-linejoin="round" stroke-miterlimit="10" d="M285.997,84.213
			c0,0.877,0,1.754,0,2.631c0,0.151,1.57,0.069,1.754,0.069c1.265,0,2.529,0,3.795,0c0.316,0,1.863,0.226,2.102,0
			c0.109-0.104,0-0.915,0-1.062c0-0.522,0-1.046,0-1.568c0-0.151-1.57-0.069-1.753-0.069
			C289.928,84.213,287.963,84.213,285.997,84.213"/>
		<path stroke="#000000" stroke-width="0.4807" stroke-linejoin="round" stroke-miterlimit="10" d="M319.645,109.03
			c-0.416-2.23-2.792-2.641-4.723-2.641c-1.825,0.22-4.357,1.018-3.912,3.408c0.391,2.095,2.834,2.864,4.755,2.634
			C317.575,112.214,320.086,111.394,319.645,109.03z M315.764,112.329c-1.846,0-2.24-1.323-2.657-2.894
			c-0.437-1.636-0.021-2.659,1.707-2.938c1.87,0,2.321,1.259,2.724,2.893C317.902,110.873,317.618,112.329,315.764,112.329z"/>
		
			<line fill="none" stroke="#000000" stroke-width="0.7211" stroke-linejoin="round" stroke-miterlimit="10" x1="308.749" y1="109.413" x2="321.799" y2="109.413"/>
		<path fill="none" stroke="#000000" stroke-width="1.9229" stroke-linejoin="round" stroke-miterlimit="10" d="M226.65,28.357
			c-4.135-2.387-9.45,0.699-9.45,5.456c0,4.756,5.315,7.844,9.45,5.456"/>
		
			<line fill="none" stroke="#000000" stroke-width="1.2018" stroke-linejoin="round" stroke-miterlimit="10" x1="223.501" y1="43.263" x2="223.501" y2="24.364"/>
		<path stroke="#000000" stroke-width="0.4807" stroke-linejoin="round" stroke-miterlimit="10" d="M259.501,32.913
			c-0.289-0.288-0.216,0.653-0.216,0.722c0,0.384-2.122,0.178-2.487,0.178c-1.545,0-3.09,0-4.635,0c-0.391,0-0.782,0-1.173,0
			c-0.319,0-0.146-0.598-0.146-0.85c0-0.091-0.216-0.072-0.216-0.024c0,0.119,0,0.237,0,0.356c0,0.496,0,0.991,0,1.486
			c0,1.396,0,2.794,0,4.19c-0.001,0.319-0.21,2.122,0.215,2.041c0-0.257-0.176-0.899,0.146-0.899c0.494,0,0.987,0,1.48,0
			c1.562,0,3.123,0,4.685,0c0.559,0,1.118,0,1.677,0c0.509,0,0.454-0.05,0.454,0.504c0,0.333,0.216,0.78,0.216,0.288
			c0-0.542,0-1.083,0-1.624c0-1.565,0-3.131,0-4.694c0-0.486,0-0.972,0-1.458C259.501,33.101,259.523,32.935,259.501,32.913z
			 M259.19,39.087c-0.408,0-0.816,0-1.224,0c-2.374,0-4.749,0-7.123,0c0-1.195,0-2.39-0.001-3.584c0-0.161-0.113-0.664,0.095-0.664
			c0.409,0,0.817,0,1.225,0c1.484,0,2.968,0,4.452,0c0.63,0,1.261,0,1.892,0c0.105,0,0.702-0.081,0.779,0
			c0.144,0.15,0,1.143,0,1.344c0,0.746,0,1.493,0,2.24C259.285,38.584,259.398,39.087,259.19,39.087z"/>
		<path fill="none" stroke="#000000" stroke-width="1.9229" stroke-linejoin="round" stroke-miterlimit="10" d="M59.251,198.457
			c-4.135-2.387-9.45,0.699-9.45,5.456s5.315,7.842,9.45,5.456"/>
		
			<line fill="none" stroke="#000000" stroke-width="1.2018" stroke-linejoin="round" stroke-miterlimit="10" x1="56.101" y1="213.364" x2="56.101" y2="194.463"/>
		<path fill="none" stroke="#000000" stroke-width="1.9229" stroke-linejoin="round" stroke-miterlimit="10" d="M63.654,203.865
			c2.008,0.349,3.859-1.341,3.685-3.374c-0.193-2.256-2.748-3.592-4.713-2.456 M62.626,209.791c1.869,1.079,4.314-0.07,4.679-2.191
			c0.363-2.11-1.536-4.017-3.651-3.639"/>
		<path stroke="#000000" stroke-width="0.4807" stroke-linejoin="round" stroke-miterlimit="10" d="M94.159,209.829
			c-0.419-2.23-2.79-2.641-4.722-2.641c-1.825,0.219-4.36,1.019-3.913,3.407c0.392,2.094,2.834,2.866,4.754,2.635
			C92.085,213.013,94.604,212.194,94.159,209.829z M90.279,213.129c-1.845,0-2.241-1.323-2.658-2.895
			c-0.434-1.636-0.019-2.656,1.708-2.938c1.867,0,2.323,1.26,2.723,2.894C92.415,211.673,92.134,213.129,90.279,213.129z"/>
		<path stroke="#000000" stroke-width="0.4807" stroke-linejoin="round" stroke-miterlimit="10" d="M129.557,212.463
			c-0.289-0.287-0.216,0.654-0.216,0.722c0,0.385-2.121,0.18-2.487,0.18c-1.545,0-3.091,0-4.636,0c-0.391,0-0.782,0-1.173,0
			c-0.319,0-0.146-0.6-0.146-0.852c0-0.091-0.216-0.071-0.216-0.023c0,0.118,0,0.236,0,0.355c0,0.495,0,0.99,0,1.486
			c0,1.396,0,2.794,0,4.189c0.002,0.319-0.207,2.123,0.217,2.041c0-0.257-0.176-0.898,0.146-0.898c0.494,0,0.987,0,1.481,0
			c1.562,0,3.123,0,4.684,0c0.559,0,1.118,0,1.676,0c0.509,0,0.454-0.051,0.454,0.504c0,0.333,0.216,0.78,0.216,0.288
			c0-0.541,0-1.083,0-1.624c0-1.565,0-3.13,0-4.694c0-0.486,0-0.972,0-1.458C129.557,212.651,129.579,212.485,129.557,212.463z
			 M129.248,218.637c-0.409,0-0.817,0-1.225,0c-2.374,0-4.748,0-7.123,0c0-1.195,0-2.39,0-3.584c0-0.161-0.113-0.664,0.095-0.664
			c0.409,0,0.817,0,1.225,0c1.484,0,2.968,0,4.452,0c0.631,0,1.262,0,1.892,0c0.105,0,0.702-0.081,0.779,0
			c0.145,0.151,0,1.144,0,1.344c0,0.747,0,1.494,0,2.24C129.343,218.134,129.456,218.637,129.248,218.637z"/>
		
			<line fill="none" stroke="#000000" stroke-width="1.2018" stroke-linejoin="round" stroke-miterlimit="10" x1="56.101" y1="156.663" x2="56.101" y2="137.763"/>
		<path fill="none" stroke="#000000" stroke-width="1.9229" stroke-linejoin="round" stroke-miterlimit="10" d="M59.251,141.757
			c-4.135-2.386-9.45,0.699-9.45,5.456s5.315,7.842,9.45,5.456"/>
		<path fill="none" stroke="#000000" stroke-width="1.9229" stroke-linejoin="round" stroke-miterlimit="10" d="M62.626,153.091
			c1.869,1.079,4.314-0.07,4.679-2.19c0.363-2.11-1.536-4.018-3.651-3.64 M63.654,147.165c2.008,0.358,3.858-1.35,3.685-3.374
			c-0.193-2.255-2.748-3.591-4.713-2.456"/>
		<path stroke="#000000" stroke-width="0.4807" stroke-linejoin="round" stroke-miterlimit="10" d="M94.278,152.615
			c-0.29-0.288-0.216,0.653-0.216,0.721c0,0.384-2.122,0.179-2.487,0.179c-1.545,0-3.09,0-4.636,0c-0.391,0-0.781,0-1.172,0
			c-0.319,0-0.146-0.598-0.146-0.85c0-0.091-0.216-0.071-0.216-0.024c0,0.119,0,0.237,0,0.356c0,0.495,0,0.989,0,1.485
			c0,1.396,0,2.794,0,4.19c0,0.318-0.209,2.122,0.216,2.041c0-0.257-0.176-0.9,0.146-0.9c0.494,0,0.987,0,1.481,0
			c1.562,0,3.123,0,4.684,0c0.559,0,1.118,0,1.676,0c0.51,0,0.454-0.05,0.454,0.504c0,0.333,0.216,0.782,0.216,0.289
			c0-0.541,0-1.083,0-1.624c0-1.564,0-3.13,0-4.693c0-0.486,0-0.973,0-1.458C94.278,152.802,94.3,152.636,94.278,152.615z
			 M93.969,158.787c-0.409,0-0.817,0-1.225,0c-2.374,0-4.748,0-7.123,0c0-1.194,0-2.391,0.001-3.584
			c0-0.161-0.113-0.664,0.095-0.664c0.408,0,0.816,0,1.224,0c1.484,0,2.968,0,4.452,0c0.631,0,1.262,0,1.892,0
			c0.105,0,0.702-0.081,0.779,0c0.144,0.15,0,1.143,0,1.344c0,0.747,0,1.494,0,2.24C94.064,158.284,94.177,158.787,93.969,158.787z"
			/>
		<path stroke="#000000" stroke-width="0.4807" stroke-linejoin="round" stroke-miterlimit="10" d="M165.529,159.43
			c-0.418-2.23-2.791-2.641-4.722-2.641c-1.824,0.218-4.36,1.018-3.913,3.406c0.392,2.095,2.834,2.866,4.754,2.636
			C163.456,162.613,165.972,161.796,165.529,159.43z M161.649,162.728c-1.845,0-2.241-1.321-2.658-2.893
			c-0.435-1.636-0.019-2.658,1.708-2.939c1.867,0,2.322,1.262,2.723,2.895C163.786,161.273,163.504,162.728,161.649,162.728z"/>
		
			<line fill="none" stroke="#000000" stroke-width="1.2018" stroke-linejoin="round" stroke-miterlimit="10" x1="56.101" y1="99.963" x2="56.101" y2="81.063"/>
		<path fill="none" stroke="#000000" stroke-width="1.9229" stroke-linejoin="round" stroke-miterlimit="10" d="M59.251,85.057
			c-4.135-2.388-9.45,0.699-9.45,5.456s5.315,7.844,9.45,5.456"/>
		<path fill="none" stroke="#000000" stroke-width="1.9229" stroke-linejoin="round" stroke-miterlimit="10" d="M62.626,96.391
			c1.869,1.079,4.314-0.069,4.679-2.19c0.364-2.115-1.536-4.013-3.651-3.641 M63.654,90.465c2.008,0.359,3.858-1.348,3.685-3.374
			c-0.193-2.254-2.747-3.592-4.713-2.457"/>
		<path stroke="#000000" stroke-width="0.4807" stroke-linejoin="round" stroke-miterlimit="10" d="M94.159,105.879
			c-0.419-2.23-2.79-2.64-4.722-2.64c-1.824,0.219-4.36,1.018-3.913,3.407c0.392,2.094,2.834,2.865,4.754,2.635
			C92.085,109.063,94.604,108.245,94.159,105.879z M90.279,109.179c-1.845,0-2.241-1.322-2.658-2.893
			c-0.434-1.637-0.019-2.658,1.708-2.939c1.867,0,2.323,1.259,2.723,2.894C92.415,107.723,92.135,109.179,90.279,109.179z"/>
		<path stroke="#000000" stroke-width="0.4807" stroke-linejoin="round" stroke-miterlimit="10" d="M129.439,112.179
			c-0.418-2.229-2.792-2.64-4.722-2.64c-1.826,0.219-4.358,1.017-3.913,3.408c0.39,2.094,2.835,2.865,4.754,2.634
			C127.366,115.364,129.882,114.545,129.439,112.179z M125.558,115.479c-1.845,0-2.241-1.321-2.658-2.893
			c-0.434-1.636-0.019-2.659,1.708-2.939c1.868,0,2.324,1.26,2.723,2.894C127.694,114.024,127.414,115.479,125.558,115.479z"/>
		
			<line fill="none" stroke="#000000" stroke-width="0.7211" stroke-linejoin="round" stroke-miterlimit="10" x1="118.543" y1="109.413" x2="131.593" y2="109.413"/>
		<path stroke="#000000" stroke-width="0.4807" stroke-linejoin="round" stroke-miterlimit="10" d="M132.493,112.78
			c0-0.312,0.018-1.009,0.508-1.009c0.428,0,0.95,0.106,0.95,0.646c0,0.519-0.293,0.812-0.812,0.812
			c-0.574,0-0.646-0.564-0.646-1.008"/>
		<path stroke="#000000" stroke-width="0.4807" stroke-linejoin="round" stroke-miterlimit="10" d="M187.699,113.355
			c-2.428-2.428-8.921,1.55-6.516,4.717c1.422,1.078,3.567,0.738,4.984-0.26C187.483,116.885,189.272,114.929,187.699,113.355z
			 M185.779,116.491c-0.889,0.535-1.777,1.071-2.665,1.607c-0.579,0.35-1.159,0.421-1.716-0.027c-0.427-0.594-0.912-1.38-0.17-1.944
			c0.592-0.449,1.237-0.81,1.873-1.193c0.889-0.536,1.777-1.071,2.665-1.607c0.565-0.341,1.179-0.436,1.716,0.028
			C189.14,114.789,186.824,115.86,185.779,116.491z"/>
		<path fill="none" stroke="#000000" stroke-width="0.7211" stroke-linejoin="round" stroke-miterlimit="10" d="M178.375,115.713
			h12.15 M178.375,109.413h12.15"/>
		
			<line fill="none" stroke="#000000" stroke-width="0.4807" stroke-linejoin="round" stroke-miterlimit="10" x1="188.274" y1="114.759" x2="188.274" y2="90.513"/>
		
			<line fill="none" stroke="#000000" stroke-width="1.2018" stroke-linejoin="round" stroke-miterlimit="10" x1="56.101" y1="43.263" x2="56.101" y2="24.364"/>
		<path fill="none" stroke="#000000" stroke-width="1.9229" stroke-linejoin="round" stroke-miterlimit="10" d="M59.251,28.357
			c-4.135-2.386-9.45,0.698-9.45,5.456c0,4.757,5.315,7.843,9.45,5.456"/>
		<path fill="none" stroke="#000000" stroke-width="1.9229" stroke-linejoin="round" stroke-miterlimit="10" d="M62.626,39.691
			c1.869,1.079,4.314-0.069,4.679-2.19c0.364-2.115-1.536-4.012-3.651-3.64 M63.654,33.765c2.008,0.354,3.859-1.344,3.685-3.374
			c-0.192-2.254-2.748-3.594-4.713-2.457"/>
		<path stroke="#000000" stroke-width="0.4807" stroke-linejoin="round" stroke-miterlimit="10" d="M94.159,42.879
			c-0.419-2.23-2.79-2.64-4.722-2.64c-1.824,0.219-4.36,1.018-3.913,3.407c0.392,2.094,2.834,2.865,4.754,2.635
			C92.085,46.063,94.604,45.245,94.159,42.879z M90.279,46.179c-1.845,0-2.241-1.322-2.658-2.893
			c-0.434-1.637-0.019-2.658,1.708-2.939c1.867,0,2.323,1.259,2.723,2.894C92.415,44.723,92.135,46.179,90.279,46.179z"/>
		<path stroke="#000000" stroke-width="0.4807" stroke-linejoin="round" stroke-miterlimit="10" d="M129.439,39.729
			c-0.418-2.229-2.792-2.64-4.722-2.64c-1.826,0.219-4.359,1.017-3.913,3.408c0.391,2.095,2.834,2.863,4.754,2.634
			C127.366,42.914,129.882,42.095,129.439,39.729z M125.558,43.03c-1.845,0-2.241-1.322-2.658-2.894
			c-0.434-1.635-0.019-2.659,1.708-2.938c1.868,0,2.324,1.259,2.723,2.893C127.694,41.573,127.414,43.03,125.558,43.03z"/>
		<path stroke="#000000" stroke-width="0.4807" stroke-linejoin="round" stroke-miterlimit="10" d="M165.529,33.429
			c-0.418-2.23-2.791-2.64-4.722-2.64c-1.824,0.219-4.36,1.017-3.913,3.408c0.392,2.094,2.833,2.864,4.754,2.634
			C163.456,36.615,165.972,35.794,165.529,33.429z M161.649,36.729c-1.845,0-2.241-1.321-2.658-2.893
			c-0.435-1.636-0.019-2.659,1.708-2.939c1.867,0,2.322,1.26,2.723,2.894C163.786,35.273,163.504,36.729,161.649,36.729z"/>
	</g>
</g>
<g id="Layer_2_1_">
	<g id="Layer_2">
		
			<line fill="none" stroke="#000000" stroke-width="0.4807" stroke-linejoin="round" stroke-miterlimit="10" x1="7.501" y1="103.114" x2="547.5" y2="103.114"/>
		
			<line fill="none" stroke="#000000" stroke-width="0.4807" stroke-linejoin="round" stroke-miterlimit="10" x1="7.501" y1="96.813" x2="547.5" y2="96.813"/>
		
			<line fill="none" stroke="#000000" stroke-width="0.4807" stroke-linejoin="round" stroke-miterlimit="10" x1="7.501" y1="90.513" x2="547.5" y2="90.513"/>
		
			<line fill="none" stroke="#000000" stroke-width="0.4807" stroke-linejoin="round" stroke-miterlimit="10" x1="7.501" y1="84.213" x2="547.5" y2="84.213"/>
		
			<line fill="none" stroke="#000000" stroke-width="0.4807" stroke-linejoin="round" stroke-miterlimit="10" x1="7.501" y1="77.913" x2="547.5" y2="77.913"/>
		
			<line fill="none" stroke="#000000" stroke-width="0.4807" stroke-linejoin="round" stroke-miterlimit="10" x1="7.501" y1="46.413" x2="547.5" y2="46.413"/>
		
			<line fill="none" stroke="#000000" stroke-width="0.4807" stroke-linejoin="round" stroke-miterlimit="10" x1="7.501" y1="40.114" x2="547.5" y2="40.114"/>
		
			<line fill="none" stroke="#000000" stroke-width="0.4807" stroke-linejoin="round" stroke-miterlimit="10" x1="7.501" y1="33.813" x2="547.5" y2="33.813"/>
		
			<line fill="none" stroke="#000000" stroke-width="0.4807" stroke-linejoin="round" stroke-miterlimit="10" x1="7.501" y1="27.513" x2="547.5" y2="27.513"/>
		
			<line fill="none" stroke="#000000" stroke-width="0.4807" stroke-linejoin="round" stroke-miterlimit="10" x1="7.501" y1="21.213" x2="547.5" y2="21.213"/>
		<path fill="none" stroke="#000000" stroke-width="0.4807" stroke-linejoin="round" stroke-miterlimit="10" d="M7.501,216.513h540
			 M7.501,210.213h540 M7.501,203.913h540 M7.501,197.614h540 M7.501,191.312h540 M7.501,216.513v-195.3 M7.608,216.513v-195.3"/>
		
			<line fill="none" stroke="#000000" stroke-width="0.4807" stroke-linejoin="round" stroke-miterlimit="10" x1="7.501" y1="159.812" x2="547.5" y2="159.812"/>
		
			<line fill="none" stroke="#000000" stroke-width="0.4807" stroke-linejoin="round" stroke-miterlimit="10" x1="7.501" y1="153.513" x2="547.5" y2="153.513"/>
		
			<line fill="none" stroke="#000000" stroke-width="0.4807" stroke-linejoin="round" stroke-miterlimit="10" x1="7.501" y1="147.213" x2="547.5" y2="147.213"/>
		
			<line fill="none" stroke="#000000" stroke-width="0.4807" stroke-linejoin="round" stroke-miterlimit="10" x1="7.501" y1="140.913" x2="547.5" y2="140.913"/>
		
			<line fill="none" stroke="#000000" stroke-width="0.4807" stroke-linejoin="round" stroke-miterlimit="10" x1="7.501" y1="134.614" x2="547.5" y2="134.614"/>
	</g>
</g>
</svg>
